<svg xmlns="http://www.w3.org/2000/svg" xmlns:xlink="http://www.w3.org/1999/xlink" viewBox="0 0 1256.394 186.177">
  <defs>
    <style>
      .a {
        fill: url(#a);
      }
      .b {
        fill: #ffeaea;
      }
      .c {
        fill: url(#b);
      }
    </style>
    <linearGradient id="a" x1="255.036" y1="154.595" x2="333.205" y2="369.361" gradientUnits="userSpaceOnUse">
      <stop offset="0" stop-color="#e64f97"/>
      <stop offset="0.188" stop-color="#e64f8c"/>
      <stop offset="0.691" stop-color="#e64f74"/>
      <stop offset="1" stop-color="#e64f6b"/>
    </linearGradient>
    <linearGradient id="b" x1="1162.699" y1="202.442" x2="1172.979" y2="220.248" xlink:href="#a"/>
  </defs>
  <path class="a" d="M176.426,203.271a28.643,28.643,0,0,1,28.643-28.643H376.925a28.642,28.642,0,0,1,28.642,28.643V303.52a28.642,28.642,0,0,1-28.642,28.643H205.069a28.643,28.643,0,0,1-28.643-28.643Zm28.643-14.322a14.322,14.322,0,0,0-14.322,14.322V303.52a14.321,14.321,0,0,0,14.322,14.321H376.925a14.321,14.321,0,0,0,14.321-14.321V203.271a14.322,14.322,0,0,0-14.321-14.322Zm14.321,164.7a7.162,7.162,0,0,1,7.161-7.161H355.443a7.161,7.161,0,0,1,0,14.321H226.551A7.161,7.161,0,0,1,219.39,353.645Zm158.527-60V212.935a9.984,9.984,0,0,0-9.954-9.955H215.828a9.984,9.984,0,0,0-9.954,9.955v80.706a9.984,9.984,0,0,0,9.954,9.954H367.963A9.983,9.983,0,0,0,377.917,293.641Z" transform="translate(-176.426 -174.628)"/>
  <g>
    <path class="b" d="M490.632,343.717a7.731,7.731,0,0,1-6-2.4,8.261,8.261,0,0,1-2.2-5.8v-123.6a7.813,7.813,0,0,1,2.4-5.9,8.335,8.335,0,0,1,6-2.3,7.922,7.922,0,0,1,6,2.3,8.19,8.19,0,0,1,2.2,5.9v123.6a8.041,8.041,0,0,1-8.4,8.2Zm90-140.2a6.542,6.542,0,0,1,5.3,2.6,8.507,8.507,0,0,1,2.1,5.4,7.258,7.258,0,0,1-2.4,5.2l-88.4,83.6-1.4-18.6,78.4-75.2A8.979,8.979,0,0,1,580.632,203.517Zm.6,140.6a7.388,7.388,0,0,1-6-3l-53.2-67.8,12.2-12.4,54.2,69.4a9.37,9.37,0,0,1,1.8,5.4,7.329,7.329,0,0,1-2.9,6.2A9.937,9.937,0,0,1,581.232,344.117Z" transform="translate(-176.426 -174.628)"/>
    <path class="b" d="M711.43,291.717a55.462,55.462,0,0,1-6.9,27.8,51.437,51.437,0,0,1-18.6,19.2,50.218,50.218,0,0,1-26.3,7,50.775,50.775,0,0,1-45.1-26.2,59.461,59.461,0,0,1,0-55.6,50.775,50.775,0,0,1,45.1-26.2,50.246,50.246,0,0,1,26.3,7,51.473,51.473,0,0,1,18.6,19.2A55.467,55.467,0,0,1,711.43,291.717Zm-16,0a42.688,42.688,0,0,0-4.7-20.4,35.536,35.536,0,0,0-12.8-13.8,35.989,35.989,0,0,0-36.6,0,36.285,36.285,0,0,0-12.9,13.8,41.937,41.937,0,0,0-4.8,20.4,41.494,41.494,0,0,0,4.8,20.2,37.021,37.021,0,0,0,12.9,13.9,35.376,35.376,0,0,0,36.6,0,36.249,36.249,0,0,0,12.8-13.9A42.235,42.235,0,0,0,695.43,291.717Z" transform="translate(-176.426 -174.628)"/>
    <path class="b" d="M788.828,237.717q13.6,0,21.4,5.6a30.364,30.364,0,0,1,11.1,15,63.12,63.12,0,0,1,3.3,21v56.2a8.082,8.082,0,0,1-2.3,5.8,7.966,7.966,0,0,1-11.4,0,8.065,8.065,0,0,1-2.3-5.8v-55.8a38.661,38.661,0,0,0-2.3-13.7,20.527,20.527,0,0,0-7.6-9.8q-5.3-3.7-14.5-3.7a32.443,32.443,0,0,0-15.4,3.7,30.8,30.8,0,0,0-11.2,9.8,23.606,23.606,0,0,0-4.2,13.7v55.8a8.082,8.082,0,0,1-2.3,5.8,7.968,7.968,0,0,1-11.4,0,8.069,8.069,0,0,1-2.3-5.8v-87.2a8.132,8.132,0,0,1,13.8-5.7,7.932,7.932,0,0,1,2.2,5.7v14.2l-4,4.4a28.286,28.286,0,0,1,4.6-10.5,41.8,41.8,0,0,1,9-9.5,45.964,45.964,0,0,1,12-6.7A38.647,38.647,0,0,1,788.828,237.717Z" transform="translate(-176.426 -174.628)"/>
    <path class="b" d="M953.428,291.717a55.462,55.462,0,0,1-6.9,27.8,51.437,51.437,0,0,1-18.6,19.2,50.218,50.218,0,0,1-26.3,7,50.775,50.775,0,0,1-45.1-26.2,59.461,59.461,0,0,1,0-55.6,50.775,50.775,0,0,1,45.1-26.2,50.246,50.246,0,0,1,26.3,7,51.473,51.473,0,0,1,18.6,19.2A55.467,55.467,0,0,1,953.428,291.717Zm-16,0a42.688,42.688,0,0,0-4.7-20.4,35.536,35.536,0,0,0-12.8-13.8,35.989,35.989,0,0,0-36.6,0,36.285,36.285,0,0,0-12.9,13.8,41.937,41.937,0,0,0-4.8,20.4,41.494,41.494,0,0,0,4.8,20.2,37.021,37.021,0,0,0,12.9,13.9,35.376,35.376,0,0,0,36.6,0,36.249,36.249,0,0,0,12.8-13.9A42.235,42.235,0,0,0,937.428,291.717Z" transform="translate(-176.426 -174.628)"/>
    <path class="b" d="M1024.226,238.717q13.6,0,22.1,6.9t11.3,19.5h-3l1.4-3.6a31.417,31.417,0,0,1,8.2-10.8,51.308,51.308,0,0,1,13.4-8.6,38.289,38.289,0,0,1,15.8-3.4q13.2,0,20.8,5.7a31.352,31.352,0,0,1,10.9,15.2,64.639,64.639,0,0,1,3.3,21.3v54.6a8.083,8.083,0,0,1-2.3,5.8,7.576,7.576,0,0,1-5.7,2.4,7.491,7.491,0,0,1-5.8-2.4,8.261,8.261,0,0,1-2.2-5.8v-54.2a40.94,40.94,0,0,0-2.3-14.1,20.862,20.862,0,0,0-7.4-10q-5.1-3.7-13.9-3.7a30.865,30.865,0,0,0-15,3.7,28.912,28.912,0,0,0-10.8,10,25.735,25.735,0,0,0-4,14.1v54.2a8.275,8.275,0,0,1-2.2,5.8,8.085,8.085,0,0,1-11.5,0,8.069,8.069,0,0,1-2.3-5.8v-54.8a41.961,41.961,0,0,0-2.1-13.7,20,20,0,0,0-7.1-9.8q-5-3.7-13.8-3.7a29.341,29.341,0,0,0-14.6,3.7,30,30,0,0,0-10.6,9.8,24.425,24.425,0,0,0-4,13.7v54.8a8.078,8.078,0,0,1-2.3,5.8,7.966,7.966,0,0,1-11.4,0,8.069,8.069,0,0,1-2.3-5.8v-87.2a8.133,8.133,0,0,1,13.8-5.7,7.931,7.931,0,0,1,2.2,5.7v15.2l-4.4,4.8a27.1,27.1,0,0,1,4.1-10.4,42.333,42.333,0,0,1,8.5-9.6,42.818,42.818,0,0,1,11.6-7A35.831,35.831,0,0,1,1024.226,238.717Z" transform="translate(-176.426 -174.628)"/>
    <path class="c" d="M1167.823,220.917q-5,0-7.4-2t-2.4-6.2v-2.8q0-4.2,2.6-6.2t7.4-2q4.8,0,7.2,2t2.4,6.2v2.8q0,4.2-2.5,6.2T1167.823,220.917Z" transform="translate(-176.426 -174.628)"/>
    <g>
      <path class="b" d="M1167.823,238.717a7.857,7.857,0,0,0-8,8v88.8a8.266,8.266,0,0,0,2.2,5.8,7.489,7.489,0,0,0,5.8,2.4,7.578,7.578,0,0,0,5.7-2.4,8.078,8.078,0,0,0,2.3-5.8v-88.8a7.857,7.857,0,0,0-8-8Z" transform="translate(-176.426 -174.628)"/>
      <path class="b" d="M1430.42,206.01a8.521,8.521,0,0,0-5.8-2.094q-5,0-7.4,4.986l-43.943,108.5L1327.82,209.3q-2.385-5.545-7.735-5.58v0H1208.821a8.129,8.129,0,0,0-5.7,2.1,7.724,7.724,0,0,0,0,11,8.129,8.129,0,0,0,5.7,2.1h38v116.6a7.9,7.9,0,0,0,2.4,5.8,8.134,8.134,0,0,0,6,2.4,8.392,8.392,0,0,0,6.2-2.4,7.9,7.9,0,0,0,2.4-5.8v-116.6h48.672c1.556,0,1.985.35,2.583,1.714l49.744,117.9a7.855,7.855,0,0,0,3,3.69,9.094,9.094,0,0,0,4.2,1.5,8.406,8.406,0,0,0,4.5-1.3,8.7,8.7,0,0,0,3.3-3.89l52.2-123.447a9.785,9.785,0,0,0,.8-3.59A6.934,6.934,0,0,0,1430.42,206.01Z" transform="translate(-176.426 -174.628)"/>
    </g>
  </g>
</svg>
