<svg xmlns="http://www.w3.org/2000/svg" xmlns:xlink="http://www.w3.org/1999/xlink" viewBox="0 0 512 512">
  <defs>
    <style>
      .a {
        fill: none;
      }
      .b {
        clip-path: url(#a);
      }
      .c {
        fill: url(#c);
      }
      .d {
        fill: url(#d);
      }
    </style>
    <clipPath id="a" transform="translate(0)">
      <rect class="a" width="512" height="512"/>
    </clipPath>
    <linearGradient id="c" x1="256.66331" y1="9.42883" x2="255.28679" y2="521.42698" gradientUnits="userSpaceOnUse">
      <stop offset="0" stop-color="#2b201c"/>
      <stop offset="0.88602" stop-color="#201512"/>
      <stop offset="1" stop-color="#1e1310"/>
    </linearGradient>
    <linearGradient id="d" x1="209.17956" y1="114.00217" x2="310.95467" y2="393.62699" gradientUnits="userSpaceOnUse">
      <stop offset="0" stop-color="#e64f97"/>
      <stop offset="0.18795" stop-color="#e64f8c"/>
      <stop offset="0.69074" stop-color="#e64f74"/>
      <stop offset="1" stop-color="#e64f6b"/>
    </linearGradient>
  </defs>
  <g class="b">
    <g class="b">
      <path class="c" d="M154.204,0c-15.87228,0-42.65469,1.32079-47.23231,1.74567a100.2766,100.2766,0,0,0-33.746,6.92208,101.55084,101.55084,0,0,0-9.33378,4.09555c-2.85181,1.35154-5.60129,2.85681-8.30968,4.45939l-.35835.205A109.28077,109.28077,0,0,0,11.83659,65.84437c-.44056.9215-.81432,1.884-1.22875,2.82089-.62465,1.46941-1.23389,2.95929-1.79731,4.46451a100.79419,100.79419,0,0,0-6.51279,27.2829C.57749,123.963-.20086,148.23579.04531,156.16605c.399,13.09078.29669,51.99042.2556,99.834.04109,47.81758.14342,86.71719-.2556,99.83406-.24617,7.93024.51162,32.19239,2.25243,55.75336A100.78763,100.78763,0,0,0,8.81053,438.87c.56342,1.50569,1.17266,2.99516,1.79731,4.46451.41443.93176.78819,1.89939,1.22875,2.82136a109.28527,109.28527,0,0,0,43.38722,48.41666l.35835.20455c2.70839,1.60264,5.45787,3.10785,8.30968,4.45939a98.25568,98.25568,0,0,0,9.33378,4.09561c10.6139,4.096,20.14762,6.2721,33.746,6.922,4.57762.42488,31.3502,1.73582,47.23231,1.74567,13.312,0,52.8901-.29681,101.79642-.25579,48.90633-.041,88.48913.266,101.79645.25579,15.87184,0,42.6547-1.32079,47.23188-1.74567,13.59886-.64992,23.13258-2.83117,33.74649-6.922a101.6021,101.6021,0,0,0,9.33373-4.09561c2.85182-1.35154,5.6013-2.85675,8.30971-4.45939l.35836-.20455a109.28211,109.28211,0,0,0,43.3868-48.41666c.44052-.922.8143-1.8896,1.22916-2.82136.62464-1.46935,1.23387-2.95882,1.79731-4.46451a100.77356,100.77356,0,0,0,6.51281-27.28248c1.71981-23.55073,2.49857-47.82312,2.25241-55.75336-.399-13.09125-.29669-51.99086-.256-99.83406-.04066-47.818-.143-86.71763.256-99.80841.24616-7.93067-.53731-32.19283-2.25241-55.75338a100.7798,100.7798,0,0,0-6.51281-27.28288c-.56344-1.50526-1.17267-2.99515-1.79731-4.4645-.41486-.93693-.78864-1.8994-1.22916-2.82094A109.27894,109.27894,0,0,0,456.77744,17.4533l-.35878-.205c-2.70841-1.60264-5.45789-3.10791-8.30971-4.4594a98.40891,98.40891,0,0,0-9.33373-4.0956c-10.61391-4.09555-20.14763-6.27169-33.74649-6.922C400.45155,1.34643,373.679.03592,357.79685.02565c-13.31244,0-52.89012.29675-101.79645.2562C207.09408.3224,167.51128.01538,154.204.02565Z" transform="translate(0)"/>
    </g>
  </g>
  <path class="d" d="M106.82927,177.37805A37.29267,37.29267,0,0,1,144.122,140.08537H367.878a37.2923,37.2923,0,0,1,37.29268,37.29268V307.90244A37.29194,37.29194,0,0,1,367.878,345.19512H144.122a37.29231,37.29231,0,0,1-37.29268-37.29268ZM144.122,158.73171a18.64645,18.64645,0,0,0-18.64634,18.64634V307.90244A18.64621,18.64621,0,0,0,144.122,326.54878H367.878a18.646,18.646,0,0,0,18.64634-18.64634V177.37805A18.64622,18.64622,0,0,0,367.878,158.73171Zm18.64634,214.43292a9.32371,9.32371,0,0,1,9.32317-9.32317H339.90854a9.32317,9.32317,0,0,1,0,18.64634H172.09146A9.3237,9.3237,0,0,1,162.76829,373.16463Zm206.40244-75.1189V186.95427A9.98353,9.98353,0,0,0,359.21646,177H155.125a9.98353,9.98353,0,0,0-9.95427,9.95427V298.04573A9.98353,9.98353,0,0,0,155.125,308H359.21646A9.98353,9.98353,0,0,0,369.17073,298.04573Z" transform="translate(0)"/>
</svg>
