<svg xmlns="http://www.w3.org/2000/svg" xmlns:xlink="http://www.w3.org/1999/xlink" viewBox="0 0 298.341 242.402">
  <defs>
    <style>
      .a {
        fill: url(#a);
      }
    </style>
    <linearGradient id="a" x1="209.009" y1="113.002" x2="310.784" y2="392.627" gradientUnits="userSpaceOnUse">
      <stop offset="0" stop-color="#e64f97"/>
      <stop offset="0.188" stop-color="#e64f8c"/>
      <stop offset="0.691" stop-color="#e64f74"/>
      <stop offset="1" stop-color="#e64f6b"/>
    </linearGradient>
  </defs>
  <path class="a" d="M106.659,176.378a37.293,37.293,0,0,1,37.292-37.293H367.707A37.293,37.293,0,0,1,405,176.378V306.9A37.292,37.292,0,0,1,367.707,344.2H143.951A37.292,37.292,0,0,1,106.659,306.9Zm37.292-18.646a18.646,18.646,0,0,0-18.646,18.646V306.9a18.646,18.646,0,0,0,18.646,18.647H367.707A18.646,18.646,0,0,0,386.354,306.9V176.378a18.646,18.646,0,0,0-18.647-18.646ZM162.6,372.165a9.324,9.324,0,0,1,9.323-9.324H339.738a9.324,9.324,0,0,1,0,18.647H171.921A9.324,9.324,0,0,1,162.6,372.165ZM369,297.046V185.954A9.983,9.983,0,0,0,359.046,176H154.954A9.983,9.983,0,0,0,145,185.954V297.046A9.983,9.983,0,0,0,154.954,307H359.046A9.983,9.983,0,0,0,369,297.046Z" transform="translate(-106.659 -139.085)"/>
</svg>
